<?xml version="1.0" encoding="UTF-8" standalone="no"?>
<svg viewBox="0 0 516.28516 237.8297" xmlns="http://www.w3.org/2000/svg" xmlns:xlink="http://www.w3.org/1999/xlink">
<defs>
<filter id="filter3743">
<feGaussianBlur stdDeviation=".91906"/>
</filter>
<filter id="filter3757">
<feGaussianBlur stdDeviation=".95092"/>
</filter>
<filter id="filter3767">
<feGaussianBlur stdDeviation=".58084"/>
</filter>
<filter id="filter3783">
<feGaussianBlur stdDeviation="3.59788"/>
</filter>
<filter id="filter3865"></filter>
<filter height="1.60975" id="filter3737" width="1.56097" x="-.28049" y="-.30488">
<feGaussianBlur stdDeviation="2.9514"/>
</filter>
<filter height="1.20325" id="filter3690" width="1.14317" x="-.07159" y="-.10162">
<feGaussianBlur stdDeviation=".61068"/>
</filter>
<linearGradient id="linearGradient3674">
<stop offset="0" stop-color="#fff"/>
<stop offset="1"/>
</linearGradient>
<linearGradient id="linearGradient3853">
<stop offset="0"/>
<stop offset="1" stop-opacity="0"/>
</linearGradient>
<linearGradient gradientUnits="userSpaceOnUse" id="linearGradient3157" x1="-880.96289" x2="-840.4657" xlink:href="#linearGradient3853" y1="645.4679" y2="604.9707"/>
<linearGradient gradientUnits="userSpaceOnUse" id="linearGradient3159" x1="-880.5" x2="-840.92859" xlink:href="#linearGradient3853" y1="645.005" y2="605.43359"/>
<radialGradient cx="-1049.0435" cy="591.22754" gradientTransform="matrix(1,0,0,.93094,0,40.83089)" gradientUnits="userSpaceOnUse" id="radialGradient3161" r="14.62691">
<stop offset="0" stop-color="#fff"/>
<stop offset="1" stop-opacity="0"/>
</radialGradient>
<radialGradient cx="-860.71429" cy="625.2193" gradientTransform="matrix(.73833,5.9424047e-7,-6.1229246e-7,.76076,-225.22391,149.57938)" gradientUnits="userSpaceOnUse" id="radialGradient3171" r="19.84286">
<stop offset="0" stop-color="#680000"/>
<stop offset="1" stop-color="#a40000" stop-opacity="0"/>
</radialGradient>
<radialGradient cx="144.42708" cy="403.34363" gradientTransform="matrix(1,8.39016e-7,-6.0977781e-7,.72678,30.30482,55.72533)" gradientUnits="userSpaceOnUse" id="radialGradient3163" r="11.07441" xlink:href="#linearGradient3674"/>
<radialGradient cx="144.42708" cy="403.34363" gradientTransform="matrix(1,8.39016e-7,-6.0977781e-7,.72678,2.4595004e-4,110.2025)" gradientUnits="userSpaceOnUse" id="radialGradient3165" r="11.07441" xlink:href="#linearGradient3674"/>
</defs>
<g transform="translate(-104.48988,-212.59941)">
<path d="m128.87907,221.23431h467.50679a15.75428,15.75428 0 0,1 15.75428,15.75428v189.05133a15.75428,15.75428 0 0,1 -15.75428,15.75428h-467.50679a15.75428,15.75428 0 0,1 -15.75428-15.75428v-189.05133a15.75428,15.75428 0 0,1 15.75428-15.75428" filter="url(#filter3783)"/>
<path d="m128.87907,221.23431h467.50679a15.75428,15.75428 0 0,1 15.75428,15.75428v189.05133a15.75428,15.75428 0 0,1 -15.75428,15.75428h-467.50679a15.75428,15.75428 0 0,1 -15.75428-15.75428v-189.05133a15.75428,15.75428 0 0,1 15.75428-15.75428" fill="#d3d7cf" opacity=".81"/>
<path d="m142,369.59375v186.28125h459v-186.28125h-459z" transform="matrix(1,0,0,.94632,-8.86754,-100.31856)"/>
<g fill="#d3d7cf" filter="url(#filter3757)" transform="matrix(1.00398,0,0,1,856.01995,-168.10287)">
<g fill="#d3d7cf">
<path d="m207.03125,725.21875c-4.68156,0-8.46875,3.75594-8.46875,8.4375v31.6875c0,4.68156 3.78719,8.4375 8.46875,8.4375h124.53125c4.68156,0 8.4375-3.75594 8.4375-8.4375v-31.6875c0-4.68156-3.75594-8.4375-8.4375-8.4375h-124.53125z" fill="#d3d7cf" transform="translate(-760.71429,-207.7433)"/>
<path d="m207.03125,731.375c-1.383,0-2.3125.9257-2.3125,2.28125v31.6875c0,1.35555.9295,2.28125 2.3125,2.28125h124.53125c1.383,0 2.28125-.89825 2.28125-2.28125v-31.6875c0-1.383-.89825-2.28125-2.28125-2.28125h-124.53125z" fill="#d3d7cf" transform="translate(-760.71429,-207.7433)"/>
</g>
<path d="m-538.97991,534.17857c-4.19718,0-7.59375,3.39657-7.59375,7.59375s3.39657,7.5625 7.59375,7.5625h27.25c4.19718,0 7.59375-3.36532 7.59375-7.5625s-3.39657-7.59375-7.59375-7.59375h-27.25zm67.84375,0c-4.19718,0-7.5625,3.39657-7.5625,7.59375s3.36532,7.5625 7.5625,7.5625h27.28125c4.19718,0 7.5625-3.36532 7.5625-7.5625s-3.36532-7.59375-7.5625-7.59375h-27.28125z" fill="#d3d7cf"/>
</g>
<path d="m207.03125,725.21875c-4.68156,0-8.46875,3.75594-8.46875,8.4375v31.6875c0,4.68156 3.78719,8.4375 8.46875,8.4375h124.53125c4.68156,0 8.4375-3.75594 8.4375-8.4375v-31.6875c0-4.68156-3.75594-8.4375-8.4375-8.4375h-124.53125z" fill="#eeeeec" transform="matrix(1.00398,0,0,1,92.2803,-375.84617)"/>
<path d="m207.03125,731.375c-1.383,0-2.3125.9257-2.3125,2.28125v31.6875c0,1.35555.9295,2.28125 2.3125,2.28125h124.53125c1.383,0 2.28125-.89825 2.28125-2.28125v-31.6875c0-1.383-.89825-2.28125-2.28125-2.28125h-124.53125z" fill="#d3d7cf" transform="matrix(1.00398,0,0,1,92.2803,-375.84617)"/>
<path d="m314.89652,366.0757c-4.21388,0-7.62395,3.39657-7.62395,7.59375s3.41007,7.5625 7.62395,7.5625h27.35837c4.21387,0 7.62395-3.36532 7.62395-7.5625s-3.41008-7.59375-7.62395-7.59375h-27.35837z"/>
<path d="m383.01008,366.0757c-4.21387,0-7.59257,3.39657-7.59257,7.59375s3.3787,7.5625 7.59257,7.5625h27.38975c4.21387,0 7.59258-3.36532 7.59258-7.5625s-3.37871-7.59375-7.59258-7.59375h-27.38975z"/>
<path d="m294.8484,410.38292c-1.77914,0-3.21592,1.43804-3.21592,3.21875v2.15625 1.78125 8.5625h142v-8.5625-1.78125-2.15625c0-1.78071-1.43678-3.21875-3.21592-3.21875h-135.56816z" fill="#555753"/>
<g fill="#d3d7cf" filter="url(#filter3767)" transform="translate(229.48006,-503.35116)">
<path d="m227.8754,847.71057h46.39204a5.59333,5.59333 0 0,1 5.59333,5.59333v47.4022a5.59333,5.59333 0 0,1 -5.59333,5.59333h-46.39204a5.59333,5.59333 0 0,1 -5.59333-5.59333v-47.4022a5.59333,5.59333 0 0,1 5.59333-5.59333" fill="#d3d7cf"/>
<path d="m-841.42858,625.2193c0,10.65121-8.63451,19.28571-19.28571,19.28571s-19.28572-8.6345-19.28572-19.28571 8.63451-19.28572 19.28572-19.28572 19.28571,8.63451 19.28571,19.28572z" fill="#d3d7cf" transform="matrix(1.2037,0,0,1.2037,1287.1164,124.42623)"/>
</g>
<path d="m457.35545,344.35941h46.39204a5.59333,5.59333 0 0,1 5.59333,5.59333v47.4022a5.59333,5.59333 0 0,1 -5.59333,5.59333h-46.39204a5.59333,5.59333 0 0,1 -5.59333-5.59333v-47.4022a5.59333,5.59333 0 0,1 5.59333-5.59333" fill="#d3d7cf"/>
<path d="m-841.42858,625.2193c0,10.65121-8.63451,19.28571-19.28571,19.28571s-19.28572-8.6345-19.28572-19.28571 8.63451-19.28572 19.28572-19.28572 19.28571,8.63451 19.28571,19.28572z" fill="#a40000" filter="url(#filter3865)" stroke="url(#linearGradient3157)" transform="matrix(1.2037,0,0,1.2037,1516.5964,-378.92493)"/>
<g fill="#d3d7cf" filter="url(#filter3767)" transform="translate(295.19434,-503.35116)">
<path d="m227.8754,847.71057h46.39204a5.59333,5.59333 0 0,1 5.59333,5.59333v47.4022a5.59333,5.59333 0 0,1 -5.59333,5.59333h-46.39204a5.59333,5.59333 0 0,1 -5.59333-5.59333v-47.4022a5.59333,5.59333 0 0,1 5.59333-5.59333" fill="#d3d7cf"/>
<path d="m-841.42858,625.2193c0,10.65121-8.63451,19.28571-19.28571,19.28571s-19.28572-8.6345-19.28572-19.28571 8.63451-19.28572 19.28572-19.28572 19.28571,8.63451 19.28571,19.28572z" fill="#d3d7cf" transform="matrix(1.2037,0,0,1.2037,1287.1164,124.42623)"/>
</g>
<path d="m523.06977,344.35941h46.39204a5.59333,5.59333 0 0,1 5.59333,5.59333v47.4022a5.59333,5.59333 0 0,1 -5.59333,5.59333h-46.39204a5.59333,5.59333 0 0,1 -5.59333-5.59333v-47.4022a5.59333,5.59333 0 0,1 5.59333-5.59333" fill="#d3d7cf"/>
<path d="m-841.42858,625.2193c0,10.65121-8.63451,19.28571-19.28571,19.28571s-19.28572-8.6345-19.28572-19.28571 8.63451-19.28572 19.28572-19.28572 19.28571,8.63451 19.28571,19.28572z" fill="#a40000" filter="url(#filter3865)" stroke="url(#linearGradient3159)" transform="matrix(1.2037,0,0,1.2037,1582.3107,-378.92493)"/>
<path d="m296.81145,313.9407h131.64199a5.179,5.179 0 0,1 5.179,5.179v14.8958a5.179,5.179 0 0,1 -5.179,5.179h-131.64199a5.179,5.179 0 0,1 -5.179-5.179v-14.8958a5.179,5.179 0 0,1 5.179-5.179" fill="#555753"/>
<path d="m296.81145,280.10059h131.64199a5.179,5.179 0 0,1 5.179,5.179v14.8958a5.179,5.179 0 0,1 -5.179,5.179h-131.64199a5.179,5.179 0 0,1 -5.179-5.179v-14.8958a5.179,5.179 0 0,1 5.179-5.179" fill="#555753"/>
<path d="m294.8484,271.54833c-1.77914,0-3.21592-1.99253-3.21592-4.45985v-2.98767-2.46807-11.86408h142v11.86408 2.46807 2.98767c0,2.46732-1.43678,4.45985-3.21592,4.45985h-135.56816z" fill="#555753"/>
<path d="m186.52223,302.91333v27.5h-27.5v36.875h27.5v27.53125h36.875v-27.53125h27.5313v-36.875h-27.5313v-27.5h-36.875z" fill="#d3d7cf" filter="url(#filter3743)" stroke="#d3d7cf" stroke-linecap="round" stroke-linejoin="round" stroke-width="4"/>
<path d="m186.52223,302.91333v27.5h-27.5v36.875h27.5v27.53125h36.875v-27.53125h27.5313v-36.875h-27.5313v-27.5h-36.875z" stroke="#fff" stroke-linecap="round" stroke-linejoin="round" stroke-width="4"/><text fill="#a40000" font-family="Bitstream Vera Sans" font-size="51.45628" transform="scale(1.22165,.81857)" x="245.90382" xml:space="preserve" y="403.10181">
        <tspan fill="#a40000" font-family="Raavi" font-size="12.86407" x="245.90382" y="403.10181">SELECT</tspan>
      </text><text fill="#a40000" font-family="Bitstream Vera Sans" font-size="51.45628" transform="scale(1.22165,.81857)" x="306.67944" xml:space="preserve" y="403.10181">
        <tspan fill="#a40000" font-family="Raavi" font-size="12.86407" x="306.67944" y="403.10181">START</tspan>
      </text><text fill="#a40000" font-family="Raavi" font-size="22.4995" transform="scale(1.19771,.83493)" x="411.71722" xml:space="preserve" y="503.17294">
        <tspan x="411.71722" y="503.17294">A</tspan>
      </text><text fill="#a40000" font-family="Raavi" font-size="22.4995" transform="scale(1.19771,.83493)" x="467.64957" xml:space="preserve" y="503.17294">
        <tspan x="467.64957" y="503.17294">B</tspan>
      </text>
<path d="m-1036.4166,591.22754c0,6.41576-5.6532,11.61675-12.6269,11.61675s-12.6269-5.20099-12.6269-11.61675 5.6533-11.61676 12.6269-11.61676 12.6269,5.201 12.6269,11.61676z" fill="url(#radialGradient3161)" filter="url(#filter3737)" opacity=".23009" transform="matrix(.79282,0,0,.79282,1036.6741,-119.86833)"/>
<path d="m174.91126,341.65533-10.4165,7.21112 10.4165,7.21113v-2.97503h10.05731v-8.47219h-10.05731v-2.97503z" fill="url(#radialGradient3163)" filter="url(#filter3690)" opacity=".069"/>
<path d="m144.60668,396.1325-10.4165,7.21112 10.4165,7.21113v-2.97503h10.05731v-8.47219h-10.05731v-2.97503z" fill="url(#radialGradient3165)" filter="url(#filter3690)" opacity=".069" transform="matrix(-1,0,0,1,378.42599,-54.54824)"/>
<path d="m144.60668,396.1325-10.4165,7.21112 10.4165,7.21113v-2.97503h10.05731v-8.47219h-10.05731v-2.97503z" fill="url(#radialGradient3165)" filter="url(#filter3690)" opacity=".069" transform="matrix(0,1,1,0,-198.36825,175.07387)"/>
<path d="m144.60668,396.1325-10.4165,7.21112 10.4165,7.21113v-2.97503h10.05731v-8.47219h-10.05731v-2.97503z" fill="url(#radialGradient3165)" filter="url(#filter3690)" opacity=".069" transform="matrix(0,-1,1,0,-198.36825,523.52704)"/>
<path d="m-841.42858,625.2193c0,10.65121-8.63451,19.28571-19.28571,19.28571s-19.28572-8.6345-19.28572-19.28571 8.63451-19.28572 19.28572-19.28572 19.28571,8.63451 19.28571,19.28572z" fill="url(#radialGradient3171)" filter="url(#filter3865)" transform="matrix(1.2037,0,0,1.2037,1582.3107,-378.92493)"/>
<path d="m-841.42858,625.2193c0,10.65121-8.63451,19.28571-19.28571,19.28571s-19.28572-8.6345-19.28572-19.28571 8.63451-19.28572 19.28572-19.28572 19.28571,8.63451 19.28571,19.28572z" fill="url(#radialGradient3171)" filter="url(#filter3865)" transform="matrix(1.2037,0,0,1.2037,1516.5964,-378.92493)"/>
</g>
</svg>
